# xmcd
#
# Track frame offsets:
# 182
# 13922
# 27615
# 41542
# 54530
# 68642
# 80480
# 94925
# 108102
# 122127
# 135780
# 149167
# 162780
# 175930
# 190105
# 203180
# 217580
# 232292
# 251717
# 268142
#
# Disc length: 3702 seconds
#
#
# Revision: 2
# Processed by: cddbd v1.5.1PL0 Copyright (c) Steve Scherf et al.
# Submitted via: FreeRIP 2.942 
#
DISCID=220e7414
DTITLE=Leadbelly - Irene Goodnight
DYEAR=1992
DGENRE=Blues
TTITLE0=New York City
TTITLE1=Pick A Bale Of Cotton
TTITLE2=Midnight Special
TTITLE3=Good Morning Blues
TTITLE4=The Red Cross Store Blues
TTITLE5=Rock Island Line
TTITLE6=Easy Rider
TTITLE7=Packin' Trunk
TTITLE8=Four Day Worry Blues
TTITLE9=Roberta Pt. 1
TTITLE10=Death Letter Blues Pt. 1
TTITLE11=Fort Worth And Dallas Blues
TTITLE12=Ox Drivin' Blues
TTITLE13=TB Women Blues
TTITLE14=My Baby Quit Me
TTITLE15=I'm On My Last Go Round
TTITLE16=The Bourgeois Blues
TTITLE17=John Hardy
TTITLE18=Irene Goodnight
TTITLE19=I'm Sorry Mama
EXTD=
EXTT0=
EXTT1=
EXTT2=
EXTT3=
EXTT4=
EXTT5=
EXTT6=
EXTT7=
EXTT8=
EXTT9=
EXTT10=
EXTT11=
EXTT12=
EXTT13=
EXTT14=
EXTT15=
EXTT16=
EXTT17=
EXTT18=
EXTT19=
PLAYORDER=
